<svg xmlns="http://www.w3.org/2000/svg" xmlns:xlink="http://www.w3.org/1999/xlink" width="32" height="32" fill="#000" viewBox="0 0 32 32"><g><path d="M 4,15C 4,15.552, 4.448,16, 5,16S 6,15.552, 6,15L 6,7.414 l 20.292,20.292c 0.39,0.39, 1.024,0.39, 1.414,0 c 0.39-0.39, 0.39-1.024,0-1.414L 7.414,6L 15,6 C 15.552,6, 16,5.552, 16,5C 16,4.448, 15.552,4, 15,4l-10,0 C 4.87,4, 4.74,4.026, 4.618,4.078 C 4.498,4.126, 4.392,4.198, 4.3,4.288C 4.298,4.29, 4.296,4.29, 4.292,4.292C 4.29,4.296, 4.288,4.302, 4.286,4.304 C 4.198,4.394, 4.126,4.5, 4.078,4.618C 4.026,4.74, 4,4.87, 4,5l0,0L 4,15 z"/></g></svg>