<svg xmlns="http://www.w3.org/2000/svg" xmlns:xlink="http://www.w3.org/1999/xlink" id="Layer_1" width="32" height="32" x="0" y="0" fill="#000" enable-background="new 0 0 16 16" version="1.1" viewBox="0 0 32 32" xml:space="preserve"><g><path d="M 16,0C 7.164,0,0,7.164,0,16s 7.164,16, 16,16s 16-7.164, 16-16S 24.836,0, 16,0z M 16,30c-7.72,0-14-6.28-14-14s 6.28-14, 14-14 s 14,6.28, 14,14S 23.72,30, 16,30zM 16,6C 10.478,6, 6,10.478, 6,16s 4.478,10, 10,10s 10-4.478, 10-10S 21.522,6, 16,6z M 16,22c-3.308,0-6-2.692-6-6 c0-3.308, 2.692-6, 6-6s 6,2.692, 6,6C 22,19.308, 19.308,22, 16,22zM 14,16A2,2 0 1 0 18,16A2,2 0 1 0 14,16z"/></g></svg>