<svg xmlns="http://www.w3.org/2000/svg" xmlns:xlink="http://www.w3.org/1999/xlink" id="Layer_1" width="32" height="32" x="0" y="0" fill="#000" enable-background="new 0 0 16 16" version="1.1" viewBox="0 0 32 32" xml:space="preserve"><g><path d="M 22,24L 22,18 c0-1.104, 0.896-2, 2-2l 6,0 L 30,12 c0-1.104-0.896-2-2-2l-2.296,0 l-0.976-5.798 c-0.044-0.264-0.194-0.5-0.412-0.652c-0.22-0.154-0.494-0.208-0.756-0.166L 3.818,7.016C 3.556,7.064, 3.322,7.216, 3.172,7.438 C 3.022,7.66, 2.966,7.932, 3.020,8.196L 3.378,10L 2,10 C 0.896,10,0,10.896,0,12l0,18 c0,1.104, 0.896,2, 2,2l 26,0 c 1.104,0, 2-0.896, 2-2l0-4 l-6,0 C 22.896,26, 22,25.104, 22,24z M 5.178,8.8l 17.746-3.266L 23.676,10l-18.26,0 L 5.178,8.8zM 31,18L 24,18 l0,6 l 7,0 c 0.552,0, 1-0.448, 1-1l0-4 C 32,18.448, 31.552,18, 31,18z M 27,22 c-0.552,0-1-0.448-1-1c0-0.552, 0.448-1, 1-1s 1,0.448, 1,1C 28,21.552, 27.552,22, 27,22z"/></g></svg>