<svg xmlns="http://www.w3.org/2000/svg" xmlns:xlink="http://www.w3.org/1999/xlink" width="32" height="32.828" fill="#000" viewBox="0 0 32 32.828"><g><path d="M 8,19.514c0,1.534, 3.86,2.348, 8.002,2.462C 16.002,21.984, 16,21.992, 16,22l0,6 c0,1.104, 0.448,4, 1,4 S 18,29.104, 18,28l0-6 c0-0.008-0.002-0.016-0.002-0.024C 22.14,21.862, 26,21.048, 26,19.514c0-1.628-1.474-2.816-4-3.456L 22,5.7 c 2.526-0.856, 4-2.234, 4-3.214c0-3.314-18-3.314-18,0c0,1.078, 1.474,2.426, 4,3.25l0,10.322 C 9.474,16.7, 8,17.886, 8,19.514z"/></g></svg>