<svg xmlns="http://www.w3.org/2000/svg" xmlns:xlink="http://www.w3.org/1999/xlink" id="Layer_1" width="32" height="32" x="0" y="0" fill="#000" enable-background="new 0 0 16 16" version="1.1" viewBox="0 0 32 32" xml:space="preserve"><g><path d="M 24,0l-4,0 L 8,0 L 2,0 C 0.896,0,0,0.896,0,2l0,28 c0,1.104, 0.896,2, 2,2l 28,0 c 1.104,0, 2-0.896, 2-2L 32,6 l-6-6L 24,0 z M 24,2l0,8 l-4,0 L 20,2 L 24,2 z M 18,2l0,8 L 8,10 L 8,2 L 18,2 z M 8,30L 8,18 l 16,0 l0,12 L 8,30 z M 30,30l-4,0 L 26,18 c0-1.104-0.896-2-2-2L 8,16 C 6.896,16, 6,16.896, 6,18l0,12 L 2,30 L 2,2 l 4,0 l0,8 c0,1.104, 0.896,2, 2,2l 12,0 l 4,0 c 1.104,0, 2-0.896, 2-2L 26,2.828 l 4,4L 30,30 z"/></g></svg>