<svg xmlns="http://www.w3.org/2000/svg" xmlns:xlink="http://www.w3.org/1999/xlink" id="Layer_1" width="32" height="32" x="0" y="0" fill="#000" enable-background="new 0 0 16 16" version="1.1" viewBox="0 0 32 32" xml:space="preserve"><g><path d="M 30,20L 30,16 c0-1.104-0.896-2-2-2L 18,14 L 18,10 l 6,0 c 1.104,0, 2-0.896, 2-2L 26,6 c0-1.104-0.896-2-2-2L 10,4 C 8.896,4, 8,4.896, 8,6l0,2 c0,1.104, 0.896,2, 2,2l 6,0 l0,4 L 6,14 C 4.896,14, 4,14.896, 4,16l0,4 c-1.104,0-2,0.896-2,2l0,4 c0,1.104, 0.896,2, 2,2l 2,0 c 1.104,0, 2-0.896, 2-2l0-2 l0-2 c0-1.104-0.896-2-2-2L 6,16 l 10,0 l0,4 c-1.104,0-2,0.896-2,2l0,2 l0,2 c0,1.104, 0.896,2, 2,2l 2,0 c 1.104,0, 2-0.896, 2-2l0-2 l0-2 c0-1.104-0.896-2-2-2L 18,16 l 10,0 l0,4 c-1.104,0-2,0.896-2,2l0,2 l0,2 c0,1.104, 0.896,2, 2,2l 2,0 c 1.104,0, 2-0.896, 2-2l0-4 C 32,20.896, 31.104,20, 30,20z"/></g></svg>