<svg xmlns="http://www.w3.org/2000/svg" xmlns:xlink="http://www.w3.org/1999/xlink" width="32" height="32" fill="#000" viewBox="0 0 32 32"><g><path d="M 23.452,14.212L 16.762,8.294c-0.2-0.2-0.462-0.296-0.724-0.292C 15.774,7.998, 15.512,8.094, 15.312,8.294 L 8.622,14.212c-0.392,0.392-0.392,1.030,0,1.422c 0.392,0.392, 1.030,0.392, 1.422,0l 5.992-5.302l 5.992,5.302 c 0.392,0.392, 1.030,0.392, 1.422,0C 23.846,15.242, 23.846,14.606, 23.452,14.212zM 16.762,15.466c-0.2-0.2-0.462-0.296-0.724-0.292C 15.774,15.17, 15.512,15.266, 15.312,15.466l-6.69,5.918 c-0.392,0.392-0.392,1.030,0,1.422c 0.392,0.392, 1.030,0.392, 1.422,0l 5.992-5.3l 5.992,5.3c 0.392,0.392, 1.030,0.392, 1.422,0 c 0.392-0.392, 0.392-1.030,0-1.422L 16.762,15.466z"/></g></svg>