<svg xmlns="http://www.w3.org/2000/svg" xmlns:xlink="http://www.w3.org/1999/xlink" id="Layer_1" width="32" height="32" x="0" y="0" fill="#000" enable-background="new 0 0 16 16" version="1.1" viewBox="0 0 32 32" xml:space="preserve"><g><path d="M 4,0C 2.896,0, 2,0.896, 2,2l0,28 c0,1.104, 0.896,2, 2,2l 26,0 c 1.104,0, 2-0.896, 2-2L 32,2 c0-1.104-0.896-2-2-2L 4,0 z M 28,10.888L 28,28 l-6,0 L 22,10.888 L 28,10.888 z M 20,6l0,22 L 14,28 L 14,6 L 20,6 z M 12,18.222L 12,28 L 6,28 L 6,18.222 L 12,18.222 z"/></g></svg>