<svg xmlns="http://www.w3.org/2000/svg" xmlns:xlink="http://www.w3.org/1999/xlink" id="Layer_1" width="32" height="32" x="0" y="0" fill="#000" enable-background="new 0 0 16 16" version="1.1" viewBox="0 0 32 32" xml:space="preserve"><g><path d="M 4.9,22.004c0,0, 6.95,0, 9.062,0l0,5.462 c-0.148,2.46, 0.56,4.536, 2.072,4.534 c 2.632-0.004, 2.558-2.126, 2.558-2.126C 19.060,22.344, 26,20.004, 26,20.004l0-16 l-0.922-0.124c-7.566,0-3.026-3.876-15.458-3.876 c-9.44,0-9.62,8.308-9.62,14S 2.594,22.004, 4.9,22.004zM 30,2.004c-1.104,0-2,0.896-2,2l0,15.938 c0,1.104, 0.896,2, 2,2s 2-0.896, 2-2L 32,4.004 C 32,2.9, 31.104,2.004, 30,2.004z"/></g></svg>