<svg xmlns="http://www.w3.org/2000/svg" xmlns:xlink="http://www.w3.org/1999/xlink" width="32.134" height="32.134" fill="#000" viewBox="0 0 32.134 32.134"><g><path d="M 19,0C 11.82,0, 6,5.82, 6,13c0,3.090, 1.082,5.922, 2.882,8.154l-8.474,8.474 c-0.542,0.542-0.542,1.422,0,1.964c 0.542,0.542, 1.422,0.542, 1.964,0l 8.474-8.474C 13.078,24.918, 15.91,26, 19,26 c 7.18,0, 13-5.82, 13-13S 26.18,0, 19,0z M 19,24C 12.934,24, 8,19.066, 8,13S 12.934,2, 19,2S 30,6.934, 30,13S 25.066,24, 19,24zM 25,12l-12,0 C 12.448,12, 12,12.448, 12,13C 12,13.552, 12.448,14, 13,14l 12,0 C 25.552,14, 26,13.552, 26,13 C 26,12.448, 25.552,12, 25,12z"/></g></svg>