<svg xmlns="http://www.w3.org/2000/svg" xmlns:xlink="http://www.w3.org/1999/xlink" id="Layer_1" width="32" height="32" x="0" y="0" fill="#000" enable-background="new 0 0 16 16" version="1.1" viewBox="0 0 32 32" xml:space="preserve"><g><path d="M 24,0L 8,0 L 2,0 C 0.896,0,0,0.896,0,2l0,28 c0,1.104, 0.896,2, 2,2l 28,0 c 1.104,0, 2-0.896, 2-2L 32,6 l-6-6L 24,0 z M 22,10L 22,2 l 2,0 l0,8 c0,1.104-0.896,2-2,2L 10,12 C 8.896,12, 8,11.104, 8,10L 8,2 l 8,0 l0,8 L 22,10 z M 6,18c0-1.104, 0.896-2, 2-2l 16,0 c 1.104,0, 2,0.896, 2,2l0,12 L 6,30 L 6,18 z"/></g></svg>