<svg xmlns="http://www.w3.org/2000/svg" xmlns:xlink="http://www.w3.org/1999/xlink" width="32.782" height="32.782" fill="#000" viewBox="0 0 32.782 32.782"><g><path d="M 6.508,6.508c-5.832,5.832-5.832,15.288,0,21.118s 15.288,5.832, 21.118,0c 5.832-5.832, 5.832-15.288,0-21.118 C 21.794,0.676, 12.338,0.676, 6.508,6.508z M 25,18L 17.040,18 C 17.026,18, 17.014,18.008, 17,18.008c-0.552,0-1-0.448-1-1L 16,7 C 16,6.448, 16.448,6, 17,6S 18,6.448, 18,7L 18,16 l 7,0 C 25.552,16, 26,16.448, 26,17C 26,17.552, 25.552,18, 25,18z"/></g></svg>