<svg xmlns="http://www.w3.org/2000/svg" xmlns:xlink="http://www.w3.org/1999/xlink" width="32" height="32" fill="#000" viewBox="0 0 32 32"><g><path d="M 16.012,8L 24,8L 24,16.022L 16.012,16.022zM 26,0L 6,0 C 2.686,0,0,2.686,0,6l0,20 c0,3.314, 2.686,6, 6,6l 20,0 c 3.314,0, 6-2.686, 6-6L 32,6 C 32,2.686, 29.314,0, 26,0z M 26,16.022L 26,25 l0,0.288 C 26,25.68, 25.68,26, 25.288,26L 25,26 L 16.012,26 L 7,26 C 6.448,26, 6,25.552, 6,25L 6,16.022 L 6,7 L 6,6.712 C 6,6.32, 6.32,6, 6.712,6L 7,6 l 9.012,0 L 25,6 C 25.552,6, 26,6.448, 26,7L 26,16.022 zM 8,16.022L 16.012,16.022L 16.012,24L 8,24z"/></g></svg>