<svg xmlns="http://www.w3.org/2000/svg" xmlns:xlink="http://www.w3.org/1999/xlink" width="32.93" height="32.93" fill="#000" viewBox="0 0 32.93 32.93"><g><path d="M 6.394,6.394c-5.858,5.858-5.858,15.356,0,21.214c 5.858,5.858, 15.356,5.858, 21.214,0 c 5.858-5.858, 5.858-15.356,0-21.214C 21.748,0.536, 12.252,0.536, 6.394,6.394z M 24,23c0,0.002,0,0.002,0,0.004 c0,0.13-0.026,0.258-0.076,0.378c-0.102,0.244-0.296,0.44-0.54,0.54C 23.26,23.974, 23.13,24, 23,24L 14.514,24 c-0.552,0-1-0.448-1-1c0-0.552, 0.448-1, 1-1l 6.072,0 l-11.020-11.020c-0.39-0.39-0.39-1.024,0-1.414s 1.024-0.39, 1.414,0 l 11.020,11.020L 22,14.514 c0-0.552, 0.448-1, 1-1s 1,0.448, 1,1L 24,23 z"/></g></svg>