<svg xmlns="http://www.w3.org/2000/svg" xmlns:xlink="http://www.w3.org/1999/xlink" id="Layer_1" width="32" height="32" x="0" y="0" fill="#000" enable-background="new 0 0 16 16" version="1.1" viewBox="0 0 32 32" xml:space="preserve"><g><path d="M 30,8l-6,0 L 24,4 c0-1.104-0.896-2-2-2L 10,2 C 8.896,2, 8,2.896, 8,4l0,4 L 2,8 C 0.896,8,0,8.896,0,10l0,18 c0,1.104, 0.896,2, 2,2l 28,0 c 1.104,0, 2-0.896, 2-2L 32,10 C 32,8.896, 31.104,8, 30,8z M 2,10l 8,0 l 12,0 l 8,0 l0,18 L 2,28 L 2,10 z M 10,4l 12,0 l0,4 L 10,8 L 10,4 z"/></g></svg>